<?xml version="1.0" standalone="no"?><!-- Generator: Gravit.io --><svg xmlns="http://www.w3.org/2000/svg" xmlns:xlink="http://www.w3.org/1999/xlink" style="isolation:isolate" viewBox="0 0 64 64" width="64" height="64"><defs><clipPath id="_clipPath_KmGVgGXC8GFKjHHykAEaQqKnj8cj0J7m"><rect width="64" height="64"/></clipPath></defs><g clip-path="url(#_clipPath_KmGVgGXC8GFKjHHykAEaQqKnj8cj0J7m)"><path d=" M 48.312 34.354 L 42.195 37.886 L 36.078 41.418 C 33.827 42.717 32 41.662 32 39.063 L 32 32 L 32 24.937 C 32 22.338 33.827 21.283 36.078 22.582 L 42.195 26.114 L 48.312 29.646 C 50.563 30.945 50.563 33.055 48.312 34.354 Z " fill="rgb(197,202,219)"/><path d=" M 30.312 34.354 L 24.195 37.886 L 18.078 41.418 C 15.827 42.717 14 41.662 14 39.063 L 14 32 L 14 24.937 C 14 22.338 15.827 21.283 18.078 22.582 L 24.195 26.114 L 30.312 29.646 C 32.563 30.945 32.563 33.055 30.312 34.354 Z " fill="rgb(197,202,219)"/></g></svg>