<?xml version="1.0" standalone="no"?><!-- Generator: Gravit.io --><svg xmlns="http://www.w3.org/2000/svg" xmlns:xlink="http://www.w3.org/1999/xlink" style="isolation:isolate" viewBox="0 0 64 64" width="64" height="64"><defs><clipPath id="_clipPath_oS437jy4WJDh7ykszkCz1i5tngo8Xrh8"><rect width="64" height="64"/></clipPath></defs><g clip-path="url(#_clipPath_oS437jy4WJDh7ykszkCz1i5tngo8Xrh8)"><path d="M 17.277 4 L 19.723 4 C 24.015 4 27.5 7.485 27.5 11.777 L 27.5 52.223 C 27.5 56.515 24.015 60 19.723 60 L 17.277 60 C 12.985 60 9.5 56.515 9.5 52.223 L 9.5 11.777 C 9.5 7.485 12.985 4 17.277 4 Z" style="stroke:none;fill:#979CAC;stroke-miterlimit:10;"/><path d="M 44.777 4 L 47.223 4 C 51.515 4 55 7.485 55 11.777 L 55 52.223 C 55 56.515 51.515 60 47.223 60 L 44.777 60 C 40.485 60 37 56.515 37 52.223 L 37 11.777 C 37 7.485 40.485 4 44.777 4 Z" style="stroke:none;fill:#979CAC;stroke-miterlimit:10;"/></g></svg>