<?xml version="1.0" standalone="no"?><!-- Generator: Gravit.io --><svg xmlns="http://www.w3.org/2000/svg" xmlns:xlink="http://www.w3.org/1999/xlink" style="isolation:isolate" viewBox="0 0 64 64" width="64" height="64"><defs><clipPath id="_clipPath_c2VSrWRJEVJRvDWGRK0Jm10Ho1O1BXNy"><rect width="64" height="64"/></clipPath></defs><g clip-path="url(#_clipPath_c2VSrWRJEVJRvDWGRK0Jm10Ho1O1BXNy)"><path d=" M 33.688 34.354 L 39.805 37.886 L 45.922 41.418 C 48.173 42.717 50 41.662 50 39.063 L 50 32 L 50 24.937 C 50 22.338 48.173 21.283 45.922 22.582 L 39.805 26.114 L 33.688 29.646 C 31.437 30.945 31.437 33.055 33.688 34.354 Z " fill="rgb(197,202,219)"/><path d=" M 15.688 34.354 L 21.805 37.886 L 27.922 41.418 C 30.173 42.717 32 41.662 32 39.063 L 32 32 L 32 24.937 C 32 22.338 30.173 21.283 27.922 22.582 L 21.805 26.114 L 15.688 29.646 C 13.437 30.945 13.437 33.055 15.688 34.354 Z " fill="rgb(197,202,219)"/></g></svg>